<svg width="40" height="50" viewBox="0 0 40 50" fill="none" xmlns="http://www.w3.org/2000/svg">
<path fill-rule="evenodd" clip-rule="evenodd" d="M35 15.625H5V43.75C5 44.5788 5.26339 45.3737 5.73223 45.9597C6.20107 46.5458 6.83696 46.875 7.5 46.875H32.5C33.163 46.875 33.7989 46.5458 34.2678 45.9597C34.7366 45.3737 35 44.5788 35 43.75V15.625ZM2.5 12.5V43.75C2.5 45.4076 3.02678 46.9973 3.96447 48.1694C4.90215 49.3415 6.17392 50 7.5 50H32.5C33.8261 50 35.0979 49.3415 36.0355 48.1694C36.9732 46.9973 37.5 45.4076 37.5 43.75V12.5H2.5Z" fill="#747436"/>
<path d="M20 4.6875C18.3424 4.6875 16.7527 5.5106 15.5806 6.97573C14.4085 8.44086 13.75 10.428 13.75 12.5H11.25C11.25 9.59919 12.1719 6.8172 13.8128 4.76602C15.4538 2.71484 17.6794 1.5625 20 1.5625C22.3206 1.5625 24.5462 2.71484 26.1872 4.76602C27.8281 6.8172 28.75 9.59919 28.75 12.5H26.25C26.25 10.428 25.5915 8.44086 24.4194 6.97573C23.2473 5.5106 21.6576 4.6875 20 4.6875Z" fill="#747436"/>
<path fill-rule="evenodd" clip-rule="evenodd" d="M27.1351 23.8937C27.2515 24.0389 27.3439 24.2113 27.4069 24.4011C27.4699 24.591 27.5023 24.7945 27.5023 25C27.5023 25.2055 27.4699 25.409 27.4069 25.5988C27.3439 25.7887 27.2515 25.9611 27.1351 26.1062L19.6351 35.4812C19.519 35.6267 19.3811 35.7422 19.2292 35.821C19.0773 35.8997 18.9145 35.9403 18.7501 35.9403C18.5857 35.9403 18.4229 35.8997 18.271 35.821C18.1192 35.7422 17.9812 35.6267 17.8651 35.4812L14.1151 30.7937C13.8804 30.5003 13.7485 30.1024 13.7485 29.6875C13.7485 29.2726 13.8804 28.8746 14.1151 28.5812C14.3498 28.2878 14.6682 28.123 15.0001 28.123C15.3321 28.123 15.6504 28.2878 15.8851 28.5812L18.7501 32.1656L25.3651 23.8937C25.4812 23.7482 25.6192 23.6328 25.771 23.554C25.9229 23.4752 26.0857 23.4347 26.2501 23.4347C26.4145 23.4347 26.5773 23.4752 26.7292 23.554C26.8811 23.6328 27.019 23.7482 27.1351 23.8937Z" fill="#747436"/>
</svg>
