<svg width="60" height="60" viewBox="0 0 60 60" fill="none" xmlns="http://www.w3.org/2000/svg">
<path d="M28.8252 34.9902C26.9002 34.7877 25.1677 34.3102 23.6827 33.1402C23.4977 32.9952 23.3077 32.8552 23.1402 32.6902C22.4902 32.0652 22.4227 31.3427 22.9402 30.6027C23.3777 29.9677 24.1152 29.7977 24.8852 30.1602C25.0337 30.2334 25.1758 30.3187 25.3102 30.4152C28.0777 32.3302 31.8802 32.3827 34.6602 30.5002C34.9275 30.2821 35.2362 30.1206 35.5677 30.0252C35.8751 29.9352 36.2039 29.9513 36.501 30.0711C36.7981 30.1908 37.0462 30.4072 37.2052 30.6852C37.6127 31.3527 37.6052 32.0027 37.1052 32.5202C36.3384 33.3002 35.4112 33.9042 34.3877 34.2902C33.4177 34.6702 32.3527 34.8602 31.3002 34.9877C31.4602 35.1627 31.5352 35.2477 31.6352 35.3477C33.0627 36.7927 34.4977 38.2327 35.9227 39.6827C36.4077 40.1777 36.5102 40.7902 36.2427 41.3652C35.9502 41.9902 35.2952 42.4052 34.6552 42.3602C34.2668 42.3211 33.9077 42.1362 33.6502 41.8427C32.5727 40.7502 31.4752 39.6777 30.4177 38.5652C30.1102 38.2402 29.9602 38.3027 29.6902 38.5827C28.6052 39.7077 27.5027 40.8152 26.3927 41.9177C25.8952 42.4102 25.3027 42.5002 24.7252 42.2177C24.4294 42.0783 24.1801 41.8565 24.0071 41.5789C23.8342 41.3013 23.745 40.9797 23.7502 40.6527C23.7826 40.2479 23.9708 39.8715 24.2752 39.6027L28.5102 35.3302C28.6027 35.2352 28.6902 35.1352 28.8252 34.9902Z" fill="#F8F8F8"/>
<path d="M29.9701 30C28.3187 29.9855 26.7401 29.3188 25.5782 28.1452C24.4164 26.9717 23.7655 25.3864 23.7676 23.735C23.7755 22.0765 24.4408 20.4887 25.6176 19.32C26.7943 18.1512 28.3865 17.4967 30.0451 17.5C30.87 17.5046 31.6859 17.6722 32.4458 17.9933C33.2057 18.3143 33.8946 18.7825 34.473 19.3708C35.0513 19.959 35.5075 20.6559 35.8155 21.4212C36.1235 22.1865 36.2772 23.0051 36.2676 23.83C36.2501 27.245 33.4251 30.0125 29.9701 30ZM33.0801 23.745C33.0811 23.3432 33.0026 22.9452 32.849 22.574C32.6955 22.2027 32.47 21.8654 32.1856 21.5817C31.9011 21.2979 31.5634 21.0733 31.1917 20.9207C30.82 20.7681 30.4219 20.6905 30.0201 20.6925C29.6151 20.6905 29.2138 20.7691 28.8396 20.9239C28.4653 21.0786 28.1256 21.3063 27.8403 21.5937C27.555 21.8811 27.3298 22.2225 27.1778 22.5978C27.0258 22.9732 26.9501 23.3751 26.9551 23.78C26.957 24.1818 27.0385 24.5792 27.1947 24.9494C27.351 25.3196 27.5789 25.6551 27.8655 25.9368C28.152 26.2185 28.4915 26.4406 28.8643 26.5905C29.2371 26.7404 29.6358 26.815 30.0376 26.81C30.4391 26.8104 30.8368 26.7311 31.2075 26.577C31.5783 26.4228 31.9148 26.1967 32.1977 25.9117C32.4806 25.6267 32.7042 25.2885 32.8557 24.9166C33.0071 24.5447 33.0834 24.1465 33.0801 23.745Z" fill="#F8F8F8"/>
<path d="M30 50C35.3043 50 40.3914 47.8929 44.1421 44.1421C47.8929 40.3914 50 35.3043 50 30C50 24.6957 47.8929 19.6086 44.1421 15.8579C40.3914 12.1071 35.3043 10 30 10C24.6957 10 19.6086 12.1071 15.8579 15.8579C12.1071 19.6086 10 24.6957 10 30C10 35.3043 12.1071 40.3914 15.8579 44.1421C19.6086 47.8929 24.6957 50 30 50ZM30 55C16.1925 55 5 43.8075 5 30C5 16.1925 16.1925 5 30 5C43.8075 5 55 16.1925 55 30C55 43.8075 43.8075 55 30 55Z" fill="#F8F8F8"/>
</svg>
